# xmcd
#
# Track frame offsets: 
#        150
#        11607
#        23249
#        33365
#        44550
#        54879
#        67411
#        80110
#        92384
#        106811
#        116827
#        128000
#        145084
#        152657
#        162688
#        172693
#        182497
#        197157
#        210832
#        220460
#        238055
#        252944
#        260563
#        271283
#        281711
#        294570
#        307836
#        320354
#        331928
#        342529
#        356938
#        370112
#        381485
#
# Disc length: 5244 seconds
#
# Revision: 0
# Processed by: cddbd v1.5.2PL0 Copyright (c) Steve Scherf et al.
# Submitted via: ExactAudioCopyFreeDBPlugin 1.0
#
DISCID=f8147a21
DTITLE=Bill Yates - Blues Like Midnight - The Sun Years, Plus
DYEAR=2013
DGENRE=Blues
TTITLE0=Mojo
TTITLE1=All I Need Is You
TTITLE2=Blues Like Midnight
TTITLE3=Fool Around With Love
TTITLE4=Don't Step On My Dog
TTITLE5=Stop, Wait And Listen
TTITLE6=Carleen
TTITLE7=Too Late To Right My Wrong
TTITLE8=Big Big World
TTITLE9=I Dropped My M&Ms
TTITLE10=Signs In The Sands
TTITLE11=Albuquerque
TTITLE12=Blues Like Midnight
TTITLE13=(I'll Never) Fool Around With Love (No More)
TTITLE14=I'm So Lonely Without You
TTITLE15=I Believe To My Soul
TTITLE16=World Of Make Believe
TTITLE17=Before I Lose My Mind
TTITLE18=Boom Boom
TTITLE19=Every Night About This Time
TTITLE20=Before I Lose My Mind
TTITLE21=High On The Hill
TTITLE22=Recipe For Love
TTITLE23=Tiny Tears
TTITLE24=Share Your Love With Me
TTITLE25=Carleen
TTITLE26=You Seem Like A Stranger To Me
TTITLE27=Two Can Play That Game
TTITLE28=I Dropped My M&Ms
TTITLE29=Big Big World
TTITLE30=Popcorn Polly
TTITLE31=She's Still Got A Hold On Me
TTITLE32=Bill's Jazz
EXTD=
EXTT0=
EXTT1=
EXTT2=
EXTT3=
EXTT4=
EXTT5=
EXTT6=
EXTT7=
EXTT8=
EXTT9=
EXTT10=
EXTT11=
EXTT12=
EXTT13=
EXTT14=
EXTT15=
EXTT16=
EXTT17=
EXTT18=
EXTT19=
EXTT20=
EXTT21=
EXTT22=
EXTT23=
EXTT24=
EXTT25=
EXTT26=
EXTT27=
EXTT28=
EXTT29=
EXTT30=
EXTT31=
EXTT32=
PLAYORDER=
